<svg width="16" height="16" viewBox="0 0 16 16" fill="none" xmlns="http://www.w3.org/2000/svg">
<path d="M8.00003 0.0308838C3.5823 0.0308838 0 3.61256 0 8.03091C0 11.5656 2.29225 14.5643 5.47093 15.6222C5.87073 15.6962 6.01754 15.4486 6.01754 15.2373C6.01754 15.0466 6.01008 14.4163 6.00669 13.7479C3.78101 14.2318 3.31138 12.804 3.31138 12.804C2.94747 11.8792 2.42313 11.6334 2.42313 11.6334C1.69732 11.1369 2.47784 11.147 2.47784 11.147C3.2812 11.2035 3.70421 11.9715 3.70421 11.9715C4.41773 13.1945 5.57571 12.8409 6.03223 12.6366C6.104 12.1194 6.31137 11.7666 6.54013 11.5668C4.76325 11.3644 2.89527 10.6785 2.89527 7.61311C2.89527 6.73973 3.20779 6.02603 3.71959 5.4658C3.63652 5.26427 3.36271 4.45062 3.79707 3.34866C3.79707 3.34866 4.46886 3.13364 5.99766 4.16871C6.63575 3.9914 7.32015 3.90256 8.00003 3.89955C8.67991 3.90256 9.36482 3.9914 10.0042 4.16871C11.5311 3.13364 12.202 3.34866 12.202 3.34866C12.6374 4.45062 12.3635 5.26427 12.2804 5.4658C12.7933 6.02603 13.1037 6.73967 13.1037 7.61311C13.1037 10.6858 11.2322 11.3624 9.45084 11.5604C9.73776 11.8087 9.99344 12.2955 9.99344 13.0419C9.99344 14.1123 9.98415 14.9738 9.98415 15.2373C9.98415 15.4502 10.1281 15.6997 10.5337 15.6211C13.7106 14.5621 16 11.5644 16 8.03091C16 3.61256 12.4182 0.0308838 8.00003 0.0308838Z" fill="white"/>
<path d="M2.99552 11.4268C2.97795 11.4665 2.91533 11.4784 2.85843 11.4512C2.80039 11.4251 2.76776 11.3709 2.78659 11.331C2.80384 11.2901 2.86646 11.2787 2.92437 11.3061C2.98253 11.3322 3.01566 11.3869 2.99552 11.4268ZM3.38904 11.7779C3.3509 11.8133 3.27629 11.7969 3.22566 11.741C3.17333 11.6852 3.16355 11.6106 3.20226 11.5747C3.2416 11.5394 3.31394 11.5559 3.36639 11.6117C3.41872 11.6681 3.42889 11.7422 3.38898 11.778M3.65903 12.2271C3.60996 12.2612 3.52978 12.2293 3.48027 12.1581C3.43127 12.087 3.43127 12.0017 3.48134 11.9675C3.53103 11.9333 3.60996 11.9641 3.66016 12.0347C3.7091 12.107 3.7091 12.1923 3.65896 12.2272M4.11554 12.7475C4.07169 12.7958 3.97832 12.7829 3.90994 12.7169C3.84004 12.6524 3.82053 12.5608 3.86451 12.5124C3.90887 12.464 4.00279 12.4776 4.07169 12.5431C4.14114 12.6074 4.16235 12.6997 4.11561 12.7475M4.70558 12.9232C4.68632 12.9858 4.59634 13.0143 4.50574 12.9877C4.41527 12.9602 4.35604 12.8868 4.3743 12.8235C4.39312 12.7605 4.48347 12.7308 4.57476 12.7593C4.66511 12.7866 4.72446 12.8594 4.70564 12.9232M5.37718 12.9976C5.37944 13.0636 5.30258 13.1183 5.20746 13.1195C5.11178 13.1216 5.03441 13.0682 5.03341 13.0033C5.03341 12.9367 5.10851 12.8825 5.20413 12.8809C5.29925 12.879 5.37718 12.9321 5.37718 12.9976ZM6.03686 12.9723C6.04828 13.0367 5.98214 13.1028 5.88772 13.1204C5.79486 13.1374 5.7089 13.0976 5.69704 13.0338C5.6855 12.9678 5.75288 12.9018 5.84555 12.8846C5.94017 12.8682 6.02481 12.9069 6.03686 12.9723Z" fill="white"/>
</svg>
