<svg width="199" height="50" viewBox="0 0 199 50" fill="none" xmlns="http://www.w3.org/2000/svg">
<path d="M39.375 35.7033C35.875 37.6096 31.9766 38.5627 27.6797 38.5627C22.7109 38.5627 18.6875 37.0158 15.6094 33.9221C12.5312 30.8283 10.9922 26.7346 10.9922 21.6408C10.9922 16.4377 12.6719 12.1721 16.0312 8.84393C19.4062 5.50018 23.6875 3.82831 28.875 3.82831C32.6094 3.82831 35.75 4.37518 38.2969 5.46893V11.2111C35.7188 9.49237 32.6484 8.633 29.0859 8.633C25.5078 8.633 22.5703 9.81268 20.2734 12.1721C17.9922 14.5314 16.8516 17.5861 16.8516 21.3361C16.8516 25.1955 17.8359 28.2346 19.8047 30.4533C21.7734 32.6564 24.4453 33.758 27.8203 33.758C30.1328 33.758 32.1328 33.3127 33.8203 32.4221V24.4299H26.7422V19.7424H39.375V35.7033ZM59.3537 19.1799C58.6974 18.6642 57.7521 18.4064 56.5177 18.4064C54.9084 18.4064 53.5646 19.133 52.4865 20.5861C51.4084 22.0392 50.8693 24.0158 50.8693 26.5158V38.0002H45.4318V14.0002H50.8693V18.9455H50.9631C51.4943 17.258 52.3068 15.9455 53.4006 15.008C54.5099 14.0549 55.7443 13.5783 57.1037 13.5783C58.0881 13.5783 58.8381 13.7267 59.3537 14.0236V19.1799ZM72.8402 38.5627C69.1371 38.5627 66.1761 37.4455 63.9574 35.2111C61.7542 32.9611 60.6527 29.9846 60.6527 26.2814C60.6527 22.2502 61.8011 19.1017 64.098 16.8361C66.4105 14.5705 69.5199 13.4377 73.4261 13.4377C77.1761 13.4377 80.098 14.5392 82.1917 16.7424C84.2855 18.9455 85.3324 22.0002 85.3324 25.9064C85.3324 29.7346 84.1996 32.8049 81.9339 35.1174C79.6839 37.4142 76.6527 38.5627 72.8402 38.5627ZM73.098 17.7736C70.973 17.7736 69.2933 18.5158 68.0589 20.0002C66.8246 21.4846 66.2074 23.5314 66.2074 26.1408C66.2074 28.6564 66.8324 30.6408 68.0824 32.0939C69.3324 33.5314 71.0042 34.2502 73.098 34.2502C75.2386 34.2502 76.8792 33.5392 78.0199 32.1174C79.1761 30.6955 79.7542 28.6721 79.7542 26.0471C79.7542 23.4064 79.1761 21.3674 78.0199 19.9299C76.8792 18.4924 75.2386 17.7736 73.098 17.7736ZM122.585 14.0002L115.506 38.0002H109.811L105.452 21.7346C105.28 21.1096 105.17 20.4064 105.124 19.6252H105.03C104.999 20.1564 104.858 20.8439 104.608 21.6877L99.8736 38.0002H94.2954L87.2408 14.0002H92.8658L97.2251 31.2971C97.3658 31.8127 97.4595 32.5002 97.5064 33.3596H97.6704C97.7173 32.7033 97.8423 32.0002 98.0454 31.2502L102.897 14.0002H108.006L112.319 31.3674C112.46 31.9142 112.561 32.6017 112.624 33.4299H112.788C112.819 32.8517 112.936 32.1642 113.139 31.3674L117.405 14.0002H122.585ZM145.282 38.0002H126.673V4.39081H132.251V33.2892H145.282V38.0002ZM159.612 38.5627C155.909 38.5627 152.948 37.4455 150.729 35.2111C148.526 32.9611 147.425 29.9846 147.425 26.2814C147.425 22.2502 148.573 19.1017 150.87 16.8361C153.182 14.5705 156.292 13.4377 160.198 13.4377C163.948 13.4377 166.87 14.5392 168.964 16.7424C171.057 18.9455 172.104 22.0002 172.104 25.9064C172.104 29.7346 170.972 32.8049 168.706 35.1174C166.456 37.4142 163.425 38.5627 159.612 38.5627ZM159.87 17.7736C157.745 17.7736 156.065 18.5158 154.831 20.0002C153.597 21.4846 152.979 23.5314 152.979 26.1408C152.979 28.6564 153.604 30.6408 154.854 32.0939C156.104 33.5314 157.776 34.2502 159.87 34.2502C162.011 34.2502 163.651 33.5392 164.792 32.1174C165.948 30.6955 166.526 28.6721 166.526 26.0471C166.526 23.4064 165.948 21.3674 164.792 19.9299C163.651 18.4924 162.011 17.7736 159.87 17.7736ZM198.927 36.0783C198.927 44.8908 194.497 49.2971 185.638 49.2971C182.513 49.2971 179.786 48.7736 177.458 47.7267V42.758C180.083 44.258 182.575 45.008 184.935 45.008C190.638 45.008 193.489 42.2033 193.489 36.5939V33.9689H193.396C191.599 37.0314 188.896 38.5627 185.286 38.5627C182.364 38.5627 180.005 37.5002 178.208 35.3752C176.427 33.2346 175.536 30.3674 175.536 26.7736C175.536 22.6955 176.497 19.4533 178.419 17.0471C180.341 14.6408 182.982 13.4377 186.341 13.4377C189.513 13.4377 191.864 14.7346 193.396 17.3283H193.489V14.0002H198.927V36.0783ZM193.536 27.008V23.8908C193.536 22.2033 192.974 20.7658 191.849 19.5783C190.739 18.3752 189.349 17.7736 187.677 17.7736C185.614 17.7736 183.997 18.5392 182.825 20.0705C181.669 21.5861 181.091 23.7111 181.091 26.4455C181.091 28.8049 181.646 30.6955 182.755 32.1174C183.88 33.5236 185.364 34.2267 187.208 34.2267C189.083 34.2267 190.607 33.5549 191.778 32.2111C192.95 30.8517 193.536 29.1174 193.536 27.008Z" fill="black"/>
<path d="M8.39233 5.11438C9.82639 6.34018 10.8424 8.59041 11.6262 11.0228C9.23412 11.8545 7.40524 11.9831 5.73894 10.9395C4.20618 10.0523 2.71406 8.00143 1.59355 4.26602C4.94941 3.20074 6.95827 3.88858 8.39233 5.11438Z" stroke="black" stroke-width="2" stroke-linecap="round" stroke-linejoin="round"/>
<path d="M10.8022 8.82635C11.8741 9.44761 13.9345 12.0612 13.601 17.5455" stroke="black" stroke-width="2"/>
<path d="M11.7494 4.63866C11.4205 6.00993 11.5148 7.44866 12.0198 8.76527C13.7767 8.05051 14.9319 7.12233 15.6125 6.04224C16.2277 4.77379 16.3682 3.35343 15.7111 1.15455C13.2008 2.13061 12.2704 3.40287 11.7494 4.63866Z" stroke="black" stroke-width="2" stroke-linecap="round" stroke-linejoin="round"/>
</svg>
